<svg width="83" height="154" viewBox="0 0 83 154" fill="none" xmlns="http://www.w3.org/2000/svg">
<path d="M83 35.9073L71.0345 33.812L69.8645 37.3115L81.83 39.4068L83 35.9073Z" fill="#FBE94C"/>
<path d="M74.1321 21.6745L64.4554 25.2102L65.0858 29.0674L74.7625 25.5316L74.1321 21.6745Z" fill="#5865F2"/>
<path d="M66.6325 7.42534e-05L63.4333 13.6016L66.1835 14.8434L69.3827 1.24187L66.6325 7.42534e-05Z" fill="#FF64B8"/>
<path d="M20.2841 43.1141L37.4128 29.1159L53.5399 16.4576C53.5399 16.4576 62.1858 38.01 64.0913 43.1141L39.2158 43.1141L20.2841 43.1141Z" fill="#FFD736"/>
<path d="M31.4956 151.728L29.1322 152.159C29.0257 152.178 28.906 152.111 28.7822 151.963C28.6583 151.815 28.5334 151.589 28.4167 151.302C28.3 151.015 28.1944 150.675 28.1079 150.306C28.0215 149.937 27.9562 149.55 27.9171 149.172L27.1891 142.154C21.0218 139.899 13.0947 118.632 8.70929 92.5289C3.90698 63.9445 5.05893 39.7667 11.2772 38.6328C17.4955 37.4989 26.4614 59.8316 31.2637 88.416C35.6491 114.519 35.1267 137.327 30.0615 141.631L31.6648 148.489C31.7511 148.858 31.816 149.245 31.8548 149.623C31.8937 150 31.9054 150.357 31.8891 150.669C31.8729 150.98 31.8291 151.236 31.7609 151.42C31.6928 151.603 31.6021 151.709 31.4956 151.728Z" fill="#6200EE"/>
<path d="M31.9326 84.9633L31.5311 83.0974C31.513 83.0133 31.5174 82.9251 31.5439 82.8393C31.5705 82.7534 31.6186 82.6723 31.6846 82.6017C31.7505 82.5312 31.8328 82.4731 31.9251 82.4318C32.0175 82.3904 32.1176 82.3669 32.2181 82.363L34.086 82.2896C33.9797 77.6576 38.9584 72.9917 45.7059 71.4157C53.0948 69.6899 59.9657 72.2799 61.0221 77.1892C62.0785 82.0985 56.9266 87.4965 49.5376 89.2223C42.7901 90.7982 36.3759 88.7933 34.5739 84.5573L32.8548 85.3218C32.7623 85.3629 32.6621 85.3862 32.5617 85.3899C32.4612 85.3936 32.3631 85.3776 32.2745 85.3432C32.1859 85.3088 32.1092 85.2567 32.05 85.191C31.9908 85.1252 31.9507 85.0474 31.9326 84.9633Z" fill="#FF64B8"/>
</svg>
